<?xml version="1.0" encoding="UTF-8" standalone="no"?>
<!DOCTYPE svg PUBLIC "-//W3C//DTD SVG 1.1//EN" "http://www.w3.org/Graphics/SVG/1.1/DTD/svg11.dtd">
<svg width="100%" height="100%" viewBox="0 0 248 203" version="1.1" xmlns="http://www.w3.org/2000/svg" xmlns:xlink="http://www.w3.org/1999/xlink" xml:space="preserve" xmlns:serif="http://www.serif.com/" style="fill-rule:evenodd;clip-rule:evenodd;stroke-linejoin:round;stroke-miterlimit:1.41421;">
    <g transform="matrix(1,0,0,1,-210.934,-148.604)">
        <g id="body" transform="matrix(0.386869,0,0,0.388793,210.934,148.644)">
            <path d="M272.419,54.915C272.482,51.427 269.498,48.665 265.613,48.617C261.756,48.569 258.824,51.287 258.836,54.899C258.847,58.559 261.668,61.378 265.409,61.471C269.238,61.565 272.351,58.654 272.419,54.915M299.012,61.464C298.981,57.353 296.256,54.447 292.459,54.472C287.944,54.502 283.183,58.844 283.232,62.887C283.277,66.587 286.928,69.855 290.981,69.822C295.503,69.786 299.048,66.097 299.012,61.464M294.992,44.615C300.086,44.578 302.969,41.492 305.615,38.492C306.93,37.001 308.121,34.23 307.602,32.601C307.01,30.742 304.669,28.688 302.705,28.17C298.253,26.996 293.881,28.189 290.3,31.204C287.568,33.503 286.758,36.583 288.11,39.955C289.421,43.225 292.153,44.48 294.992,44.615M252.261,71.92C246.39,71.979 242.193,75.765 242.286,80.919C242.388,86.565 247.992,91.242 254.471,91.091C260.702,90.945 265.403,86.764 265.307,81.453C265.207,75.881 259.683,71.845 252.261,71.92M359.571,263.684C362.658,264.659 375.91,265.905 378.518,265.692C384.61,265.197 390.755,264.539 395.919,260.911C397.336,259.915 398.921,257.648 398.714,256.212C398.415,254.146 397.221,252.538 395.678,250.933C394.847,250.068 392.593,249.562 391.187,249.398C382.394,248.368 374.026,246.375 367.31,239.996C366.05,238.798 364.368,237.897 362.722,237.278C356.147,234.808 350.242,238.683 349.757,245.684C349.618,247.708 349.538,249.739 349.517,251.768C349.439,259.111 352.548,261.466 359.571,263.684ZM319.183,125.496C292.902,125.938 273.827,128.414 255.278,131.076C244.454,132.63 233.329,134.833 223.775,140.33C220.851,142.013 218.69,146.491 218.226,150.71C217.687,155.607 217.022,188.554 222.861,208.263C223.665,210.978 226.308,213.127 229.111,213.524C244.81,215.749 333.964,212.154 351.938,193.3C357.79,187.161 359.393,166.188 360.718,158.315C360.932,157.048 361.939,155.354 363.025,154.881C373.112,150.487 383.785,149.611 394.622,150.305C395.735,150.376 399.18,150.901 399.754,151.925C402.2,156.298 402.311,165.602 404.719,170.618C407.146,175.674 409.329,182.104 414.572,184.716C421.54,188.187 431.884,187.583 438.87,188.198C448.837,189.075 479.638,184.448 492.322,180.523C494.289,179.914 495.727,178.665 496.474,176.693C501.667,162.978 503.925,138.558 502.379,123.219C502.019,119.655 500.081,118.505 483.681,116.697C456.424,113.693 428.785,117.258 403.34,126.642C401.378,127.366 401.75,129.87 400.935,131.286C400.339,132.323 399.064,132.387 397.037,132.225C393.629,131.953 372.545,130.458 359.522,133.512C356.068,134.322 354.46,133.546 352.82,132.069C350.375,129.868 350.713,127.903 346.829,126.686C342.011,125.175 324.601,125.405 319.183,125.496ZM120.907,450.13C116.662,451.613 104.979,452.18 104.979,452.18C103.139,445.857 99.865,439.917 92.479,440.493C83.444,441.197 82.269,451.769 81.467,452.332C79.679,453.588 67.168,452.989 65.407,452.666C62.825,452.191 60.995,452.313 60.363,449.064C59.708,445.689 55.275,441.254 49,442.869C43.057,444.398 42.963,448.124 41.522,448.573C39.912,449.074 37.189,448.002 35.599,447.721C30.897,446.889 26.112,446.098 21.641,444.503C16.516,442.675 11.647,440.093 6.769,437.635C5.441,436.966 4.378,435.654 3.372,434.483C-1.944,428.295 -1.029,424.099 6.503,421.145C9.592,419.933 12.903,418.902 16.183,418.628C36.189,416.961 55.445,411.521 74.919,407.2C83.203,405.363 91.4,403.131 99.619,401.012C124.725,394.541 146.781,382.189 166.847,366.031C173.724,360.492 180.663,355.02 187.34,349.248C189.887,347.045 191.781,344.086 194.611,340.71C190.67,341.29 187.852,341.489 185.143,342.14C171.162,345.498 152.013,344.689 140.758,343.767C137.153,343.472 136.484,343.537 136.169,341.242C136.073,340.542 135.783,334.358 130.852,332.722C127.16,331.496 123.073,332.686 120.583,335.289C118.982,336.964 119.084,338.17 118.054,339.216C116.746,339.152 114.137,338.315 112.492,337.468C112.437,335.794 112.827,329.712 109.66,327.717C106.297,325.599 102.562,326.011 99.357,328.693C98.717,329.227 98.26,330.107 97.545,330.391C96.684,330.733 93.446,328.861 93.084,327.857C92.925,327.418 93.407,326.746 93.604,326.182C94.48,323.671 95.6,321.014 93.195,318.842C90.451,316.365 87.285,314.732 83.377,315.96C82.809,316.139 80.335,317.379 79.914,317.723C77.284,319.868 73.938,317.242 69.932,313.691C66.459,310.611 60.84,304.625 60.689,300.061C60.539,295.479 65.827,294.49 71.175,293.513C80.321,291.844 91.606,291.898 100.868,291.319C117.682,290.269 132.527,288.814 149.329,287.635C167.323,286.372 184.348,281.923 198.995,270.325C207.266,263.775 212.44,255.224 217.257,246.265C218.836,243.33 225.134,229.873 225.134,229.873C225.134,229.873 214.3,226.173 211.811,221.135C206.792,210.976 205.295,199.79 203.956,188.474C202.618,177.171 201.106,154.587 202.896,139.57C203.477,134.702 210.749,130.482 210.749,130.482C210.749,130.482 210.864,125.514 211.142,122.724C213.708,96.894 219.37,74.829 235.467,54.055C249.128,36.426 265.137,21.789 285.835,12.507C299.488,6.384 313.83,3.872 328.387,1.626C359.072,-3.108 391.53,2.381 416.828,11.897C436.385,19.253 453.387,33.733 468.211,48.648C488.475,69.036 496.081,90.958 499.383,100.278C500.346,102.995 501.825,107.343 501.825,107.343C501.825,107.343 505.312,108.624 506.607,109.356C510.249,111.417 512.614,112.405 513.257,119.716C514.762,136.819 513.668,163.056 506.66,179.137C504.51,184.069 503.177,188.279 499.646,190.106C497.191,191.375 491.715,193.625 491.715,193.625C491.715,193.625 485.149,209.119 483.259,218.071C481.762,225.157 483.395,232.156 489.099,237.495C494.172,242.243 506.17,243.153 512.936,240.857C530.833,234.783 542.394,226.351 553.613,217.001C556.5,214.595 560.333,212.685 563.914,211.639C566.516,210.879 568.566,212.107 568.268,214.688C567.712,219.504 566.415,224.435 564.823,229.073C564.646,229.591 563.855,229.928 563,230.068C558.739,230.767 557.08,232.507 557.267,236.741C557.356,238.74 559.212,240.642 560.693,242.281C560.416,243.993 558.859,246.802 558.314,248.466C554.726,246.804 551.822,245.467 549.344,248.329C546.954,251.09 547.273,254.294 548.502,257.455C548.888,258.447 550.473,260.416 551.354,261.994C551.058,263.275 549.872,264.574 548.591,265.596C546.911,264.851 545.846,263.855 544.213,263.826C542.122,263.787 539.171,263.923 538.084,265.458C535.983,268.424 536.978,271.737 537.078,271.954C539.025,276.191 537.802,278.932 532.34,282.282C526.734,285.72 516.018,290.717 504.603,292.262C496.75,293.325 495.093,301.677 499.278,308.342C502.393,313.304 509.011,319.342 514.347,321.825C529.647,328.947 550.693,329.452 565.377,328.844C572.873,328.533 583.716,328.297 591.023,329.968C614.135,335.256 622.718,342.446 631.266,363.482C635.883,374.845 639.699,384.002 639.284,395.874C639.062,402.257 637.219,406.058 631.056,404.535C623.823,402.747 619.704,398.631 613.887,394.012C615.084,391.74 615.928,387.475 614.207,385.222C611.138,381.206 606.003,384.376 604.766,385.247C603.965,385.812 600.6,382.927 600.571,381.924C600.528,380.423 601.292,378.855 601.077,377.411C600.11,370.912 595.942,369.392 590.686,373.301C589.691,374.041 587.666,374.547 586.825,374.023C585.973,373.493 582.18,372.053 582.364,370.811C582.859,367.466 582.546,364.564 579.447,362.645C576.606,360.887 571.906,361.145 569.874,363.862C567.506,367.028 567.259,367.467 563.919,367.852C548.743,369.596 533.237,368.974 521.351,368.738C496.494,368.244 468.055,364.183 439.055,353.78C426.889,349.415 410.669,338.834 398.316,334.75C384.781,330.277 371.952,332.57 360.778,340.529C351.931,346.831 346.834,360.19 344.994,371.05C341.677,390.616 355.548,416.206 359.126,422.138C373.683,446.277 389.998,458.872 405.666,467.54C419.925,475.429 441.032,479.851 453.233,479.507C457.025,479.401 459.497,479.966 459.637,481.863C459.762,483.55 460.332,486.063 462.46,488.425C465.683,492.004 474.55,491.335 476.247,485.637C477.631,480.992 477.307,480.742 479.794,480.621C482.109,480.509 484.553,480.467 486.221,480.592C489.777,480.859 489.69,480.725 490.513,484.338C491.219,487.438 495.318,489.821 498.412,489.359C501.909,488.837 503.969,486.477 504.981,483.224C505.241,482.391 505.498,481.343 506.323,481.272C509.149,481.031 512.686,480.343 514.265,480.902C515.387,481.299 514.25,487.495 522.006,487.594C524.973,487.631 527.478,485.893 528.164,483.055C528.872,480.126 529.511,480.672 532.134,480.62C538.42,480.494 544.923,481.228 550.823,482.145C556.204,482.982 557.835,486.207 555.44,491.247C552.01,498.458 537.862,504.418 530.557,507.374C504.617,517.87 479.519,520.798 464.83,521.232C434.037,522.141 401.194,521.311 373.609,507.523C349.957,495.704 329.178,483.679 312.095,463.405C296.083,444.403 284.396,422.795 273.875,400.454C270.824,393.977 267.317,387.71 263.855,381.439C263.513,380.82 261.883,380.418 261.085,380.666C260.026,380.995 259.187,382.05 258.272,382.815C240.261,397.842 222.189,413.015 200.915,423.127C184.768,430.803 167.628,438.021 150.13,442.396C147.086,443.157 147.504,443.242 145.83,441.113C144.614,439.567 141.088,435.03 135.889,435.435C130.106,435.885 124.293,437.108 122.673,446.196C122.12,449.305 123.638,449.176 120.907,450.13Z" style="fill:white;fill-rule:nonzero;"/>
        </g>
        <g id="picture" transform="matrix(0.507409,0,0,0.509932,172.317,103.745)">
            <g transform="matrix(0.76244,0,0,0.76244,76.228,89.987)">
                <path d="M520.862,427.067C518.559,427.067 516.552,427.104 514.547,427.06C497.47,426.686 480.394,426.282 463.318,425.942C461.931,425.915 459.987,425.781 459.243,426.576C456.133,429.9 453.382,433.56 450.076,437.615C451.407,437.518 451.984,437.548 452.525,437.425C459.869,435.753 467.214,435.662 474.541,437.472C478.595,438.474 482.629,439.566 486.659,440.666C489.06,441.321 491.042,441.195 492.531,438.761C496.13,432.881 501.383,431.238 507.965,432.852C514.262,434.398 516.928,433.155 520.862,427.067M569.246,395.087C569.246,395.087 569.724,393.474 565.444,393.368C558.28,393.191 551.112,393.19 543.947,393.051C516.964,392.53 487.244,392.318 460.275,391.392C454.415,391.191 455.657,391.566 450.542,397.489C449.455,398.748 446.549,402.679 445.682,404.101C444.313,406.348 447.625,407.711 449.566,409.229C453.709,412.47 455.137,413.96 456.306,415.093C458.525,417.244 460.447,418.16 464.67,418.132C480.308,418.027 501.852,418.994 517.49,418.919C521.664,418.898 526.575,418.757 526.575,418.757C526.575,418.757 532.067,411.583 536.284,410.283C540.534,408.972 545.957,408.664 549.683,409.284C554.885,410.15 561.066,412.816 564.938,415.117C560.22,408.576 563.269,407.953 569.246,395.087ZM454.293,381.731C474.602,382.237 523.403,383.406 523.403,383.406C542.88,383.406 554.174,383.86 573.65,383.862C574.725,383.862 575.803,383.84 576.877,383.899C582.186,384.188 583.597,386.347 581.307,391.089C578.92,396.033 576.409,400.929 573.697,405.701C572.111,408.491 572.072,410.826 574.369,413.109C576.317,415.046 578.273,416.972 580.214,418.916C582.717,421.424 583.053,424.101 580.626,426.827C577.051,430.839 573.579,434.965 569.736,438.707C566.849,441.518 566.739,444.328 568.128,447.764C569.644,451.517 570.968,455.353 572.262,459.191C573.286,462.227 571.699,463.686 568.878,464.169C567.941,464.329 566.976,464.374 566.023,464.381C537.464,464.607 508.905,464.9 480.345,464.997C469.714,465.033 459.081,464.63 448.449,464.38C442.82,464.247 440.785,462.821 438.884,457.473C437.526,453.653 436.477,449.724 435.189,445.879C434.079,442.561 434.961,439.753 437.17,437.261C439.943,434.133 442.722,431.005 445.605,427.978C449.737,423.638 449.863,422.434 445.336,418.463C442.663,416.12 439.524,414.315 436.682,412.152C432.287,408.804 432.259,408.333 435.241,403.886C439.558,397.449 443.857,391 448.15,384.546C449.627,382.327 451.652,381.666 454.293,381.731Z" style="fill:white;fill-rule:nonzero;"/>
            </g>
            <g transform="matrix(0.76244,0,0,0.76244,76.228,89.987)">
                <path d="M486.111,406.713C482.715,408.722 478.289,409.876 475.268,410.215C472.72,410.502 470.024,409.846 467.987,408.751C463.63,406.408 463.565,401.717 467.792,399.073C472.904,395.878 478.581,395.043 484.279,396.717C486.2,397.282 488.517,399.452 488.934,401.28C489.293,402.856 487.681,405.783 486.111,406.713Z" style="fill:white;fill-rule:nonzero;"/>
            </g>
        </g>
        <g id="eyes" transform="matrix(0.507409,0,0,0.509932,168.036,133.353)">
            <g id="eye-L" transform="matrix(1.35681,0,0,1.35681,-1265.36,-746.08)">
                <path d="M1155.08,655.599C1157.11,654.019 1159.66,653.079 1162.43,653.079C1169.05,653.079 1174.43,658.456 1174.43,665.079C1174.43,671.702 1169.05,677.079 1162.43,677.079C1155.81,677.079 1150.43,671.702 1150.43,665.079C1150.43,663.31 1150.81,661.63 1151.51,660.119C1151.74,662.14 1153.46,663.71 1155.55,663.71C1157.79,663.71 1159.62,661.887 1159.62,659.641C1159.62,657.394 1157.79,655.571 1155.55,655.571C1155.39,655.571 1155.24,655.58 1155.08,655.599Z" style="fill:white;"/>
            </g>
            <g id="eye-R" transform="matrix(1.07323,0,0,1.07323,-820.824,-565.689)">
                <path d="M1155.08,655.599C1157.11,654.019 1159.66,653.079 1162.43,653.079C1169.05,653.079 1174.43,658.456 1174.43,665.079C1174.43,671.702 1169.05,677.079 1162.43,677.079C1155.81,677.079 1150.43,671.702 1150.43,665.079C1150.43,663.31 1150.81,661.63 1151.51,660.119C1151.74,662.14 1153.46,663.71 1155.55,663.71C1157.79,663.71 1159.62,661.887 1159.62,659.641C1159.62,657.394 1157.79,655.571 1155.55,655.571C1155.39,655.571 1155.24,655.58 1155.08,655.599Z" style="fill:white;"/>
            </g>
        </g>
    </g>
</svg>
